<mxfile host="app.diagrams.net" modified="2021-05-14T02:38:23.954Z" agent="5.0 (Macintosh; Intel Mac OS X 10_14_5) AppleWebKit/537.36 (KHTML, like Gecko) Chrome/90.0.4430.212 Safari/537.36" etag="m0xncyYMpclm4Qw9aygA" version="14.6.12" type="github">
  <diagram id="bmtqTCYfykTdZSM7A_Qg" name="Page-1">
    <mxGraphModel dx="678" dy="423" grid="1" gridSize="10" guides="1" tooltips="1" connect="1" arrows="1" fold="1" page="1" pageScale="1" pageWidth="827" pageHeight="1169" math="0" shadow="0">
      <root>
        <mxCell id="0" />
        <mxCell id="1" parent="0" />
        <mxCell id="-Rtb6g7GIEbvU8N28n1T-11" value="新户（首次缴费）" style="swimlane;childLayout=stackLayout;horizontal=1;startSize=30;horizontalStack=0;rounded=1;fontSize=14;fontStyle=0;strokeWidth=2;resizeParent=0;resizeLast=1;shadow=0;dashed=0;align=center;" vertex="1" parent="1">
          <mxGeometry x="320" y="260" width="240" height="120" as="geometry" />
        </mxCell>
        <mxCell id="-Rtb6g7GIEbvU8N28n1T-12" value="缴费截止日期：2019.12.31&#xa;承租开始日期：2020.01.01&#xa;承租结束日期：2023.01.01&#xa;租金缴费日期至（续租至）：2021.01.01" style="align=left;strokeColor=none;fillColor=none;spacingLeft=4;fontSize=12;verticalAlign=top;resizable=0;rotatable=0;part=1;" vertex="1" parent="-Rtb6g7GIEbvU8N28n1T-11">
          <mxGeometry y="30" width="240" height="90" as="geometry" />
        </mxCell>
        <mxCell id="-Rtb6g7GIEbvU8N28n1T-14" style="edgeStyle=orthogonalEdgeStyle;rounded=0;orthogonalLoop=1;jettySize=auto;html=1;entryX=0.5;entryY=0;entryDx=0;entryDy=0;" edge="1" parent="1" source="-Rtb6g7GIEbvU8N28n1T-13" target="-Rtb6g7GIEbvU8N28n1T-11">
          <mxGeometry relative="1" as="geometry" />
        </mxCell>
        <mxCell id="-Rtb6g7GIEbvU8N28n1T-13" value="申请获得租房资格" style="whiteSpace=wrap;html=1;align=center;" vertex="1" parent="1">
          <mxGeometry x="320" y="120" width="240" height="40" as="geometry" />
        </mxCell>
        <mxCell id="-Rtb6g7GIEbvU8N28n1T-15" value="比如：2019.12.26获得资格，5个工作日内必须交费，否则视为放弃租房资格，截止日期为2019.12.31" style="text;html=1;strokeColor=none;fillColor=none;align=center;verticalAlign=middle;whiteSpace=wrap;rounded=0;fontColor=#FF0000;" vertex="1" parent="1">
          <mxGeometry x="440" y="200" width="160" height="20" as="geometry" />
        </mxCell>
        <mxCell id="-Rtb6g7GIEbvU8N28n1T-16" value="缴费截止日期内必须交费，否则视为放弃租房资格" style="text;html=1;strokeColor=none;fillColor=none;align=center;verticalAlign=middle;whiteSpace=wrap;rounded=0;fontColor=#FF0000;" vertex="1" parent="1">
          <mxGeometry x="560" y="290" width="150" height="20" as="geometry" />
        </mxCell>
        <mxCell id="-Rtb6g7GIEbvU8N28n1T-23" value="老户（续费）" style="swimlane;childLayout=stackLayout;horizontal=1;startSize=30;horizontalStack=0;rounded=1;fontSize=14;fontStyle=0;strokeWidth=2;resizeParent=0;resizeLast=1;shadow=0;dashed=0;align=center;" vertex="1" parent="1">
          <mxGeometry x="320" y="440" width="240" height="120" as="geometry" />
        </mxCell>
        <mxCell id="-Rtb6g7GIEbvU8N28n1T-24" value="缴费截止日期：2020.12.01&#xa;承租开始日期：2020.01.01&#xa;承租结束日期：2023.01.01&#xa;租金缴费日期至：2022.01.01" style="align=left;strokeColor=none;fillColor=none;spacingLeft=4;fontSize=12;verticalAlign=top;resizable=0;rotatable=0;part=1;" vertex="1" parent="-Rtb6g7GIEbvU8N28n1T-23">
          <mxGeometry y="30" width="240" height="90" as="geometry" />
        </mxCell>
        <mxCell id="-Rtb6g7GIEbvU8N28n1T-25" style="edgeStyle=orthogonalEdgeStyle;rounded=0;orthogonalLoop=1;jettySize=auto;html=1;entryX=0.5;entryY=0;entryDx=0;entryDy=0;fontColor=#FF0000;" edge="1" parent="1" source="-Rtb6g7GIEbvU8N28n1T-12" target="-Rtb6g7GIEbvU8N28n1T-23">
          <mxGeometry relative="1" as="geometry" />
        </mxCell>
        <mxCell id="-Rtb6g7GIEbvU8N28n1T-26" value="次年续费" style="text;html=1;strokeColor=none;fillColor=none;align=center;verticalAlign=middle;whiteSpace=wrap;rounded=0;fontColor=#FF0000;" vertex="1" parent="1">
          <mxGeometry x="400" y="400" width="140" height="20" as="geometry" />
        </mxCell>
        <mxCell id="-Rtb6g7GIEbvU8N28n1T-27" value="缴费截止日期为上年度费用到期前30日内，一次性支付，否责产生滞纳金" style="text;html=1;strokeColor=none;fillColor=none;align=center;verticalAlign=middle;whiteSpace=wrap;rounded=0;fontColor=#FF0000;" vertex="1" parent="1">
          <mxGeometry x="570" y="480" width="150" height="20" as="geometry" />
        </mxCell>
        <mxCell id="-Rtb6g7GIEbvU8N28n1T-28" value="老户（续租，重新签合同）" style="swimlane;childLayout=stackLayout;horizontal=1;startSize=30;horizontalStack=0;rounded=1;fontSize=14;fontStyle=0;strokeWidth=2;resizeParent=0;resizeLast=1;shadow=0;dashed=0;align=center;" vertex="1" parent="1">
          <mxGeometry x="320" y="640" width="240" height="120" as="geometry" />
        </mxCell>
        <mxCell id="-Rtb6g7GIEbvU8N28n1T-29" value="缴费截止日期：2022.12.01&#xa;承租开始日期：2023.01.01&#xa;承租结束日期：2026.01.01&#xa;租金缴费日期至（续租至）：2024.01.01" style="align=left;strokeColor=none;fillColor=none;spacingLeft=4;fontSize=12;verticalAlign=top;resizable=0;rotatable=0;part=1;" vertex="1" parent="-Rtb6g7GIEbvU8N28n1T-28">
          <mxGeometry y="30" width="240" height="90" as="geometry" />
        </mxCell>
        <mxCell id="-Rtb6g7GIEbvU8N28n1T-30" style="edgeStyle=orthogonalEdgeStyle;rounded=0;orthogonalLoop=1;jettySize=auto;html=1;entryX=0.5;entryY=0;entryDx=0;entryDy=0;fontColor=#FF0000;" edge="1" parent="1" source="-Rtb6g7GIEbvU8N28n1T-24" target="-Rtb6g7GIEbvU8N28n1T-28">
          <mxGeometry relative="1" as="geometry" />
        </mxCell>
        <mxCell id="-Rtb6g7GIEbvU8N28n1T-31" value="合同到期" style="text;html=1;strokeColor=none;fillColor=none;align=center;verticalAlign=middle;whiteSpace=wrap;rounded=0;fontColor=#FF0000;" vertex="1" parent="1">
          <mxGeometry x="400" y="585" width="140" height="20" as="geometry" />
        </mxCell>
        <mxCell id="-Rtb6g7GIEbvU8N28n1T-32" value="如续租，缴费截止日期规则同老户续费" style="text;html=1;strokeColor=none;fillColor=none;align=center;verticalAlign=middle;whiteSpace=wrap;rounded=0;fontColor=#FF0000;" vertex="1" parent="1">
          <mxGeometry x="560" y="670" width="210" height="20" as="geometry" />
        </mxCell>
        <mxCell id="-Rtb6g7GIEbvU8N28n1T-33" value="续租者需在租赁期满前3个月向住房保障部门提出续租申请" style="text;html=1;strokeColor=none;fillColor=none;align=center;verticalAlign=middle;whiteSpace=wrap;rounded=0;fontColor=#FF0000;" vertex="1" parent="1">
          <mxGeometry x="560" y="710" width="200" height="20" as="geometry" />
        </mxCell>
      </root>
    </mxGraphModel>
  </diagram>
</mxfile>
